<svg width="1080" height="1080" viewBox="0 0 1080 1080" fill="none" xmlns="http://www.w3.org/2000/svg">
<path d="M1032.34 538.49H982.319L969.139 499.78H886.899L898.689 459.96H955.399L929.629 383.78L918.279 383.54L906.929 383.78L854.239 538.49H804.219L862.369 368.6C862.369 368.6 870.009 344.9 895.339 344.68H941.219C966.549 344.9 974.189 368.6 974.189 368.6L1032.34 538.49Z" fill="black"/>
<path d="M408.271 574.469V673.999C408.271 707.669 380.551 734.969 346.351 734.969H301.291C267.091 734.969 239.371 707.669 239.371 673.999V574.469H279.931V669.169C279.931 687.969 295.391 703.209 314.481 703.209H334.721C353.811 703.209 369.281 687.969 369.281 669.169V574.469H408.281H408.271Z" fill="black"/>
<path d="M643.601 599.63V734.98H602.411L603.791 606.98H597.261C597.261 606.98 591.751 628.07 585.601 651.48C580.151 672.25 574.191 694.84 571.121 706.2C564.581 730.35 546.761 733.52 546.761 733.52H516.791C516.791 733.52 498.971 730.35 492.441 706.2C489.361 694.84 483.411 672.25 477.951 651.48C471.801 628.07 466.301 606.98 466.301 606.98H459.761L461.151 734.98H419.961V599.63C419.951 597.36 420.491 595.49 421.341 593.39C421.911 591.97 422.571 590.6 423.311 589.26C425.361 585.58 428.071 582.23 431.461 579.7C435.771 576.47 441.001 574.84 446.361 574.7C467.751 574.18 479.891 574.7 479.891 574.7C479.891 574.7 493.621 573.12 501.811 597.54C509.991 621.97 517.651 661.31 517.651 661.31L528.581 702.04H534.981L545.901 661.31C545.901 661.31 553.561 621.97 561.751 597.54C569.931 573.12 583.661 574.7 583.661 574.7C583.661 574.7 595.811 574.18 617.191 574.7C622.561 574.84 627.791 576.47 632.101 579.7C635.491 582.23 638.201 585.58 640.251 589.26C640.991 590.6 641.651 591.97 642.221 593.39C643.071 595.49 643.601 597.36 643.601 599.63Z" fill="black"/>
<path d="M317.719 375.06V538.49H267.979L269.649 383.93H261.759C261.759 383.93 255.109 409.4 247.679 437.66C241.099 462.74 233.899 490.02 230.189 503.73C222.289 532.89 200.769 536.72 200.769 536.72H164.579C164.579 536.72 143.059 532.89 135.179 503.73C131.459 490.01 124.279 462.74 117.679 437.66C110.249 409.39 103.609 383.93 103.609 383.93H95.7085L97.3885 538.49H47.6486V375.06C47.6386 372.32 48.2885 370.06 49.3185 367.53C50.0085 365.82 50.8086 364.16 51.6986 362.54C54.1786 358.1 57.4486 354.05 61.5386 351C66.7386 347.1 73.0585 345.13 79.5285 344.96C105.359 344.33 120.019 344.96 120.019 344.96C120.019 344.96 136.599 343.05 146.489 372.54C156.369 402.04 165.619 449.54 165.619 449.54L178.819 498.72H186.549L199.739 449.54C199.739 449.54 208.989 402.04 218.879 372.54C228.759 343.05 245.339 344.96 245.339 344.96C245.339 344.96 260.009 344.33 285.829 344.96C292.309 345.13 298.629 347.1 303.829 351C307.919 354.05 311.199 358.1 313.669 362.54C314.559 364.16 315.359 365.81 316.049 367.53C317.079 370.07 317.719 372.32 317.719 375.06Z" fill="black"/>
<path d="M558.249 538.49H508.229L495.049 499.78H412.809L424.599 459.96H481.309L455.539 383.78L444.189 383.54L432.839 383.78L380.149 538.49H330.129L388.279 368.6C388.279 368.6 395.919 344.9 421.249 344.68H467.129C492.459 344.9 500.099 368.6 500.099 368.6L558.249 538.49Z" fill="black"/>
<path d="M845.461 735.252L797.311 594.552C797.311 594.552 790.981 574.922 770.001 574.742H732.011C711.031 574.922 704.701 594.552 704.701 594.552L656.551 735.252H697.971L741.601 607.122L751.001 606.922L760.401 607.122L781.111 668.462L781.741 670.212H734.771L725.011 703.192H793.121L804.041 735.252H845.461Z" fill="black"/>
<path d="M717 442.102L789.36 344.852H728.08L681.24 413.372L634.39 344.852H573.11L645.47 442.102L571.41 538.662L631.48 538.242L681.24 469.902L730.99 538.242L791.06 538.662L717 442.102Z" fill="black"/>
<path d="M228.401 574.82V735.32H186.851V673.87H90.1611V735.32H48.6211V574.82H90.7611L90.2811 639.07L138.511 638.76L186.731 639.07L186.251 574.82H228.401Z" fill="black"/>
<path d="M1032.34 574.75V710.56C1032.13 711.85 1031.62 714.61 1030.18 717.88C1028.74 721.17 1026.39 724.97 1022.55 728.32C1016.91 733.23 1010.88 734.73 1008.04 735.26H980.09C977.51 734.8 972.21 733.54 967.1 729.38C964.81 727.53 963.13 725.551 961.9 723.781C960.38 722.211 959.25 720.74 958.42 719.57L896.69 611.93L898.36 735.25H856.93V599.44C857.14 598.15 857.65 595.361 859.09 592.091C860.53 588.801 862.88 585.001 866.72 581.651C872.36 576.761 878.39 575.24 881.23 574.73H909.18C911.76 575.16 917.06 576.431 922.17 580.581C924.46 582.431 926.16 584.41 927.37 586.18C928.89 587.75 930.02 589.221 930.85 590.391L992.58 698.031L990.91 574.74H1032.34V574.75Z" fill="black"/>
</svg>
